# xmcd CD database file
#
# Track frame offsets:
#	150
#	19798
#	45207
#	80523
#	114935
#
# Disc length: 2131 seconds
#
# Revision: 0
# Processed by: cddbd v1.5.2PL0 Copyright (c) Steve Scherf et al.
# Submitted via: CDex 1.70beta2
#
DISCID=2b085105
DTITLE=Serrie, Jonn - And the stars go with you
DYEAR=1900
DGENRE=New Age
TTITLE0=Gentle, the night
TTITLE1=Fantasy passages
TTITLE2=And the stars go with you
TTITLE3=And with you 2
TTITLE4=The far river
EXTD=
EXTT0=
EXTT1=
EXTT2=
EXTT3=
EXTT4=
PLAYORDER=
